<svg width="11" height="16" viewBox="0 0 11 16" fill="none" xmlns="http://www.w3.org/2000/svg">
<path d="M5.17647 0C4.15723 0.00125528 3.16098 0.297665 2.31235 0.852154C1.46371 1.40664 0.800358 2.1946 0.405257 3.11746C0.0101553 4.04032 -0.0991536 5.05712 0.0910017 6.04069C0.281157 7.02425 0.762335 7.93091 1.47435 8.64727V15.2727C1.47473 15.3967 1.50737 15.5185 1.56917 15.6266C1.63097 15.7347 1.71988 15.8255 1.82745 15.8903C1.93502 15.9552 2.05768 15.992 2.18378 15.9972C2.30989 16.0023 2.43525 15.9758 2.54797 15.92L5.17647 14.6327L7.80498 15.92C7.90813 15.9719 8.02226 15.9993 8.13817 16C8.27679 16.0004 8.41276 15.9626 8.53059 15.8909C8.63729 15.8254 8.72524 15.7343 8.78613 15.6261C8.84702 15.5179 8.87884 15.3963 8.87859 15.2727V8.64727C9.59061 7.93091 10.0718 7.02425 10.2619 6.04069C10.4521 5.05712 10.3428 4.04032 9.94768 3.11746C9.55258 2.1946 8.88923 1.40664 8.04059 0.852154C7.19196 0.297665 6.19571 0.00125528 5.17647 0ZM7.39774 14.0945L5.50966 13.1709C5.40631 13.1198 5.2922 13.0931 5.17647 13.0931C5.06074 13.0931 4.94663 13.1198 4.84328 13.1709L2.9552 14.0945V9.68727C3.42383 9.90463 3.923 10.0517 4.43605 10.1236V10.9091C4.43605 11.102 4.51406 11.287 4.65291 11.4233C4.79177 11.5597 4.9801 11.6364 5.17647 11.6364C5.37284 11.6364 5.56117 11.5597 5.70003 11.4233C5.83889 11.287 5.91689 11.102 5.91689 10.9091V10.1236C6.42994 10.0517 6.92911 9.90463 7.39774 9.68727V14.0945ZM5.17647 8.72727C4.44426 8.72727 3.72849 8.514 3.11968 8.11443C2.51087 7.71486 2.03636 7.14694 1.75616 6.48248C1.47595 5.81802 1.40264 5.08687 1.54549 4.38149C1.68833 3.6761 2.04093 3.02817 2.55868 2.51961C3.07643 2.01106 3.73608 1.66473 4.45422 1.52442C5.17236 1.38411 5.91674 1.45612 6.59321 1.73135C7.26968 2.00657 7.84788 2.47266 8.25467 3.07065C8.66146 3.66865 8.87859 4.3717 8.87859 5.09091C8.87859 6.05533 8.48855 6.98025 7.79426 7.6622C7.09998 8.34415 6.15833 8.72727 5.17647 8.72727Z" fill="white"/>
</svg>
