<svg width="99" height="41" viewBox="0 0 99 41" fill="none" xmlns="http://www.w3.org/2000/svg">
<path d="M45.7637 11.6665H56.0551L58.5444 14.1722V19.8468L56.0179 22.3893H48.9588V27.9165H45.7637V11.6665ZM54.569 19.7362L55.3863 18.9256V15.1302L54.569 14.3196H48.9217V19.7362H54.569Z" fill="white"/>
<path d="M59.7812 11.6665H63.0256V25.2634H71.3251V27.9165H59.7812V11.6665Z" fill="white"/>
<path d="M78.1445 11.6665H81.0315L86.9905 27.9165H83.7704L82.438 24.3054H76.701L75.3686 27.9165H72.1484L78.1445 11.6665ZM81.7347 21.726L79.588 15.5356H79.551L77.4413 21.726H81.7347Z" fill="white"/>
<path d="M89.9456 21.2839L84.1055 11.6665H87.6021L91.5079 18.336H91.5451L95.4509 11.6665H98.9476L93.1446 21.2839V27.9165H89.9456V21.2839Z" fill="white"/>
<path d="M29.6927 0.0991211H9.88625C4.41654 0.0991211 0 4.56264 0 10.0905V30.1077C0 35.6356 4.41654 40.0991 9.88625 40.0991H29.6927C35.1624 40.0991 39.5789 35.6356 39.5789 30.1077V10.0905C39.5789 4.56264 35.1624 0.0991211 29.6927 0.0991211Z" fill="#ED1C24"/>
<path d="M33.3962 21.4208V24.5796V26.571C33.3962 27.4294 33.2943 28.2191 33.0565 28.9401C32.8187 29.6611 32.5129 30.2792 32.1392 30.8285C31.7655 31.3779 31.3239 31.8586 30.8482 32.2362C30.3726 32.6139 29.863 32.9229 29.3194 33.1633C28.8098 33.4036 28.2663 33.5753 27.7227 33.6783C27.1791 33.7813 26.6695 33.85 26.1939 33.85H21.4716H19.8069H13.3859C12.9103 33.85 12.4007 33.7813 11.8571 33.6783C11.3136 33.5753 10.77 33.4036 10.2604 33.1633C9.71682 32.9229 9.20722 32.6139 8.73159 32.2362C8.25597 31.8242 7.81431 31.3779 7.44061 30.8285C7.03293 30.2792 6.76114 29.6611 6.52333 28.9401C6.28551 28.2534 6.18359 27.4294 6.18359 26.571V13.6955C6.18359 13.2148 6.25154 12.6998 6.35346 12.1504C6.45538 11.6011 6.62525 11.0517 6.86306 10.5367C7.10087 9.98732 7.40663 9.4723 7.78034 8.99161C8.18802 8.51092 8.62968 8.06457 9.17325 7.68689C9.71682 7.30921 10.3623 7.00019 11.0418 6.75985C11.7212 6.51951 12.5026 6.4165 13.3859 6.4165H33.3623L27.1791 12.6311H13.6577C13.2161 12.6311 12.8763 12.7341 12.6725 12.9401C12.4687 13.1461 12.3667 13.4895 12.3667 13.9702V26.2963C12.3667 26.7427 12.5026 27.086 12.7065 27.292C12.9103 27.5324 13.2501 27.6354 13.6917 27.6354H19.8069H21.4716H25.8881C26.3298 27.6354 26.6695 27.498 26.8734 27.292C27.1112 27.086 27.2131 26.7427 27.2131 26.2963V23.3779H16.5794L22.7626 17.1633H30.4066C30.8482 17.1633 31.2219 17.232 31.5957 17.4036C31.9694 17.5753 32.2751 17.7813 32.5469 18.056C32.8187 18.3307 33.0225 18.6397 33.1584 18.983C33.3283 19.3607 33.3962 19.7384 33.3962 20.1504V21.4208Z" fill="white"/>
</svg>
